<svg width="14" height="14" viewBox="0 0 14 14" fill="none" xmlns="http://www.w3.org/2000/svg">
<circle cx="7" cy="7" r="6.5" fill="#1F1919" stroke="#BC8538"/>
<path d="M7.55664 9.47266H6.4668C6.4707 9.09766 6.50391 8.79102 6.56641 8.55273C6.63281 8.31055 6.74023 8.08984 6.88867 7.89062C7.03711 7.69141 7.23438 7.46484 7.48047 7.21094C7.66016 7.02734 7.82422 6.85547 7.97266 6.69531C8.125 6.53125 8.24805 6.35547 8.3418 6.16797C8.43555 5.97656 8.48242 5.74805 8.48242 5.48242C8.48242 5.21289 8.43359 4.98047 8.33594 4.78516C8.24219 4.58984 8.10156 4.43945 7.91406 4.33398C7.73047 4.22852 7.50195 4.17578 7.22852 4.17578C7.00195 4.17578 6.78711 4.2168 6.58398 4.29883C6.38086 4.38086 6.2168 4.50781 6.0918 4.67969C5.9668 4.84766 5.90234 5.06836 5.89844 5.3418H4.81445C4.82227 4.90039 4.93164 4.52148 5.14258 4.20508C5.35742 3.88867 5.64648 3.64648 6.00977 3.47852C6.37305 3.31055 6.7793 3.22656 7.22852 3.22656C7.72461 3.22656 8.14648 3.31641 8.49414 3.49609C8.8457 3.67578 9.11328 3.93359 9.29688 4.26953C9.48047 4.60156 9.57227 4.99609 9.57227 5.45312C9.57227 5.80469 9.5 6.12891 9.35547 6.42578C9.21484 6.71875 9.0332 6.99414 8.81055 7.25195C8.58789 7.50977 8.35156 7.75586 8.10156 7.99023C7.88672 8.18945 7.74219 8.41406 7.66797 8.66406C7.59375 8.91406 7.55664 9.18359 7.55664 9.47266ZM6.41992 11.3301C6.41992 11.1543 6.47461 11.0059 6.58398 10.8848C6.69336 10.7637 6.85156 10.7031 7.05859 10.7031C7.26953 10.7031 7.42969 10.7637 7.53906 10.8848C7.64844 11.0059 7.70312 11.1543 7.70312 11.3301C7.70312 11.498 7.64844 11.6426 7.53906 11.7637C7.42969 11.8848 7.26953 11.9453 7.05859 11.9453C6.85156 11.9453 6.69336 11.8848 6.58398 11.7637C6.47461 11.6426 6.41992 11.498 6.41992 11.3301Z" fill="#B7B7B7"/>
</svg>
