<svg width="1440" height="556" viewBox="0 0 1440 556" fill="none" xmlns="http://www.w3.org/2000/svg">
<rect width="1440" height="556" fill="#40916C"/>
<circle cx="932" cy="445" r="73.5" stroke="#B7E4C7" stroke-width="3"/>
<path d="M487.091 215.5L558 105.842L628.909 215.5H487.091Z" stroke="#2D6A4F" stroke-width="2"/>
<path d="M104.76 361V316.328H121.016C125.155 316.328 128.312 317.459 130.488 319.72C132.664 321.981 133.752 325.139 133.752 329.192C133.752 333.245 132.664 336.403 130.488 338.664C128.312 340.925 125.155 342.056 121.016 342.056H110.136V361H104.76ZM110.136 337.384H120.888C123.149 337.384 124.899 336.829 126.136 335.72C127.416 334.568 128.056 332.947 128.056 330.856V327.528C128.056 325.437 127.416 323.837 126.136 322.728C124.899 321.576 123.149 321 120.888 321H110.136V337.384ZM157.151 361.768C154.762 361.768 152.607 361.363 150.687 360.552C148.81 359.741 147.188 358.589 145.823 357.096C144.5 355.56 143.476 353.747 142.751 351.656C142.026 349.523 141.663 347.155 141.663 344.552C141.663 341.907 142.026 339.517 142.751 337.384C143.519 335.251 144.564 333.437 145.887 331.944C147.21 330.408 148.788 329.235 150.623 328.424C152.5 327.613 154.57 327.208 156.831 327.208C159.05 327.208 161.055 327.613 162.847 328.424C164.682 329.235 166.239 330.365 167.519 331.816C168.799 333.224 169.78 334.909 170.463 336.872C171.146 338.835 171.487 340.989 171.487 343.336V345.768H147.039V347.304C147.039 348.755 147.274 350.099 147.743 351.336C148.212 352.573 148.874 353.64 149.727 354.536C150.623 355.432 151.69 356.136 152.927 356.648C154.207 357.117 155.615 357.352 157.151 357.352C159.37 357.352 161.29 356.84 162.911 355.816C164.532 354.792 165.77 353.384 166.623 351.592L170.399 354.152C169.418 356.371 167.775 358.205 165.471 359.656C163.21 361.064 160.436 361.768 157.151 361.768ZM156.831 331.432C155.423 331.432 154.122 331.688 152.927 332.2C151.732 332.712 150.687 333.416 149.791 334.312C148.938 335.208 148.255 336.275 147.743 337.512C147.274 338.707 147.039 340.029 147.039 341.48V341.928H165.983V341.224C165.983 339.773 165.748 338.451 165.279 337.256C164.852 336.061 164.234 335.037 163.423 334.184C162.655 333.288 161.695 332.605 160.543 332.136C159.434 331.667 158.196 331.432 156.831 331.432ZM195.334 361.768C191.878 361.768 188.891 361.192 186.374 360.04C183.899 358.845 181.787 357.267 180.038 355.304L183.494 352.296C185.073 353.96 186.801 355.24 188.678 356.136C190.555 357.032 192.817 357.48 195.462 357.48C198.022 357.48 200.113 357.032 201.734 356.136C203.398 355.197 204.23 353.747 204.23 351.784C204.23 350.931 204.059 350.227 203.718 349.672C203.419 349.075 202.993 348.605 202.438 348.264C201.883 347.923 201.265 347.667 200.582 347.496C199.899 347.283 199.174 347.112 198.406 346.984L193.222 346.216C192.07 346.045 190.811 345.811 189.446 345.512C188.123 345.213 186.907 344.744 185.798 344.104C184.689 343.421 183.75 342.525 182.982 341.416C182.257 340.307 181.894 338.856 181.894 337.064C181.894 335.4 182.214 333.971 182.854 332.776C183.537 331.539 184.475 330.515 185.67 329.704C186.865 328.851 188.273 328.232 189.894 327.848C191.515 327.421 193.286 327.208 195.206 327.208C198.193 327.208 200.774 327.677 202.95 328.616C205.169 329.555 207.067 330.856 208.646 332.52L205.318 335.656C204.934 335.187 204.443 334.717 203.846 334.248C203.291 333.736 202.587 333.288 201.734 332.904C200.923 332.477 199.963 332.136 198.854 331.88C197.745 331.624 196.465 331.496 195.014 331.496C192.411 331.496 190.406 331.944 188.998 332.84C187.633 333.736 186.95 335.037 186.95 336.744C186.95 337.597 187.099 338.323 187.398 338.92C187.739 339.475 188.187 339.923 188.742 340.264C189.297 340.605 189.915 340.883 190.598 341.096C191.323 341.267 192.049 341.416 192.774 341.544L197.958 342.312C199.153 342.483 200.411 342.717 201.734 343.016C203.057 343.315 204.273 343.805 205.382 344.488C206.491 345.128 207.409 346.003 208.134 347.112C208.902 348.221 209.286 349.672 209.286 351.464C209.286 354.749 208.006 357.288 205.446 359.08C202.929 360.872 199.558 361.768 195.334 361.768ZM233.709 361.768C230.253 361.768 227.266 361.192 224.749 360.04C222.274 358.845 220.162 357.267 218.413 355.304L221.869 352.296C223.448 353.96 225.176 355.24 227.053 356.136C228.93 357.032 231.192 357.48 233.837 357.48C236.397 357.48 238.488 357.032 240.109 356.136C241.773 355.197 242.605 353.747 242.605 351.784C242.605 350.931 242.434 350.227 242.093 349.672C241.794 349.075 241.368 348.605 240.813 348.264C240.258 347.923 239.64 347.667 238.957 347.496C238.274 347.283 237.549 347.112 236.781 346.984L231.597 346.216C230.445 346.045 229.186 345.811 227.821 345.512C226.498 345.213 225.282 344.744 224.173 344.104C223.064 343.421 222.125 342.525 221.357 341.416C220.632 340.307 220.269 338.856 220.269 337.064C220.269 335.4 220.589 333.971 221.229 332.776C221.912 331.539 222.85 330.515 224.045 329.704C225.24 328.851 226.648 328.232 228.269 327.848C229.89 327.421 231.661 327.208 233.581 327.208C236.568 327.208 239.149 327.677 241.325 328.616C243.544 329.555 245.442 330.856 247.021 332.52L243.693 335.656C243.309 335.187 242.818 334.717 242.221 334.248C241.666 333.736 240.962 333.288 240.109 332.904C239.298 332.477 238.338 332.136 237.229 331.88C236.12 331.624 234.84 331.496 233.389 331.496C230.786 331.496 228.781 331.944 227.373 332.84C226.008 333.736 225.325 335.037 225.325 336.744C225.325 337.597 225.474 338.323 225.773 338.92C226.114 339.475 226.562 339.923 227.117 340.264C227.672 340.605 228.29 340.883 228.973 341.096C229.698 341.267 230.424 341.416 231.149 341.544L236.333 342.312C237.528 342.483 238.786 342.717 240.109 343.016C241.432 343.315 242.648 343.805 243.757 344.488C244.866 345.128 245.784 346.003 246.509 347.112C247.277 348.221 247.661 349.672 247.661 351.464C247.661 354.749 246.381 357.288 243.821 359.08C241.304 360.872 237.933 361.768 233.709 361.768ZM271.7 361.768C269.396 361.768 267.305 361.363 265.428 360.552C263.593 359.741 262.015 358.589 260.692 357.096C259.412 355.56 258.431 353.747 257.748 351.656C257.065 349.523 256.724 347.133 256.724 344.488C256.724 341.885 257.065 339.517 257.748 337.384C258.431 335.251 259.412 333.437 260.692 331.944C262.015 330.408 263.593 329.235 265.428 328.424C267.305 327.613 269.396 327.208 271.7 327.208C274.004 327.208 276.073 327.613 277.908 328.424C279.785 329.235 281.364 330.408 282.644 331.944C283.967 333.437 284.969 335.251 285.652 337.384C286.335 339.517 286.676 341.885 286.676 344.488C286.676 347.133 286.335 349.523 285.652 351.656C284.969 353.747 283.967 355.56 282.644 357.096C281.364 358.589 279.785 359.741 277.908 360.552C276.073 361.363 274.004 361.768 271.7 361.768ZM271.7 357.352C274.559 357.352 276.863 356.499 278.612 354.792C280.361 353.085 281.236 350.44 281.236 346.856V342.12C281.236 338.536 280.361 335.891 278.612 334.184C276.863 332.477 274.559 331.624 271.7 331.624C268.841 331.624 266.537 332.477 264.788 334.184C263.039 335.891 262.164 338.536 262.164 342.12V346.856C262.164 350.44 263.039 353.085 264.788 354.792C266.537 356.499 268.841 357.352 271.7 357.352ZM322.555 361C320.55 361 319.12 360.488 318.267 359.464C317.414 358.44 316.88 357.16 316.667 355.624H316.347C315.622 357.544 314.448 359.059 312.827 360.168C311.248 361.235 309.115 361.768 306.427 361.768C302.971 361.768 300.219 360.872 298.171 359.08C296.123 357.288 295.099 354.835 295.099 351.72C295.099 348.648 296.208 346.28 298.427 344.616C300.688 342.952 304.315 342.12 309.307 342.12H316.347V338.856C316.347 336.424 315.664 334.611 314.299 333.416C312.934 332.179 310.992 331.56 308.475 331.56C306.256 331.56 304.443 332.008 303.035 332.904C301.627 333.757 300.496 334.931 299.643 336.424L296.187 333.864C296.614 333.011 297.19 332.179 297.915 331.368C298.64 330.557 299.536 329.853 300.603 329.256C301.67 328.616 302.886 328.125 304.251 327.784C305.616 327.4 307.131 327.208 308.795 327.208C312.678 327.208 315.75 328.189 318.011 330.152C320.315 332.115 321.467 334.845 321.467 338.344V356.52H326.075V361H322.555ZM307.323 357.48C308.646 357.48 309.84 357.331 310.907 357.032C312.016 356.691 312.976 356.264 313.787 355.752C314.598 355.197 315.216 354.557 315.643 353.832C316.112 353.064 316.347 352.253 316.347 351.4V345.96H309.307C306.235 345.96 303.995 346.387 302.587 347.24C301.179 348.093 300.475 349.331 300.475 350.952V352.296C300.475 354.003 301.072 355.304 302.267 356.2C303.504 357.053 305.19 357.48 307.323 357.48ZM348.834 361.768C345.378 361.768 342.391 361.192 339.874 360.04C337.399 358.845 335.287 357.267 333.538 355.304L336.994 352.296C338.573 353.96 340.301 355.24 342.178 356.136C344.055 357.032 346.317 357.48 348.962 357.48C351.522 357.48 353.613 357.032 355.234 356.136C356.898 355.197 357.73 353.747 357.73 351.784C357.73 350.931 357.559 350.227 357.218 349.672C356.919 349.075 356.493 348.605 355.938 348.264C355.383 347.923 354.765 347.667 354.082 347.496C353.399 347.283 352.674 347.112 351.906 346.984L346.722 346.216C345.57 346.045 344.311 345.811 342.946 345.512C341.623 345.213 340.407 344.744 339.298 344.104C338.189 343.421 337.25 342.525 336.482 341.416C335.757 340.307 335.394 338.856 335.394 337.064C335.394 335.4 335.714 333.971 336.354 332.776C337.037 331.539 337.975 330.515 339.17 329.704C340.365 328.851 341.773 328.232 343.394 327.848C345.015 327.421 346.786 327.208 348.706 327.208C351.693 327.208 354.274 327.677 356.45 328.616C358.669 329.555 360.567 330.856 362.146 332.52L358.818 335.656C358.434 335.187 357.943 334.717 357.346 334.248C356.791 333.736 356.087 333.288 355.234 332.904C354.423 332.477 353.463 332.136 352.354 331.88C351.245 331.624 349.965 331.496 348.514 331.496C345.911 331.496 343.906 331.944 342.498 332.84C341.133 333.736 340.45 335.037 340.45 336.744C340.45 337.597 340.599 338.323 340.898 338.92C341.239 339.475 341.687 339.923 342.242 340.264C342.797 340.605 343.415 340.883 344.098 341.096C344.823 341.267 345.549 341.416 346.274 341.544L351.458 342.312C352.653 342.483 353.911 342.717 355.234 343.016C356.557 343.315 357.773 343.805 358.882 344.488C359.991 345.128 360.909 346.003 361.634 347.112C362.402 348.221 362.786 349.672 362.786 351.464C362.786 354.749 361.506 357.288 358.946 359.08C356.429 360.872 353.058 361.768 348.834 361.768ZM425.776 361.768C423.387 361.768 421.232 361.363 419.312 360.552C417.435 359.741 415.813 358.589 414.448 357.096C413.125 355.56 412.101 353.747 411.376 351.656C410.651 349.523 410.288 347.155 410.288 344.552C410.288 341.907 410.651 339.517 411.376 337.384C412.144 335.251 413.189 333.437 414.512 331.944C415.835 330.408 417.413 329.235 419.248 328.424C421.125 327.613 423.195 327.208 425.456 327.208C427.675 327.208 429.68 327.613 431.472 328.424C433.307 329.235 434.864 330.365 436.144 331.816C437.424 333.224 438.405 334.909 439.088 336.872C439.771 338.835 440.112 340.989 440.112 343.336V345.768H415.664V347.304C415.664 348.755 415.899 350.099 416.368 351.336C416.837 352.573 417.499 353.64 418.352 354.536C419.248 355.432 420.315 356.136 421.552 356.648C422.832 357.117 424.24 357.352 425.776 357.352C427.995 357.352 429.915 356.84 431.536 355.816C433.157 354.792 434.395 353.384 435.248 351.592L439.024 354.152C438.043 356.371 436.4 358.205 434.096 359.656C431.835 361.064 429.061 361.768 425.776 361.768ZM425.456 331.432C424.048 331.432 422.747 331.688 421.552 332.2C420.357 332.712 419.312 333.416 418.416 334.312C417.563 335.208 416.88 336.275 416.368 337.512C415.899 338.707 415.664 340.029 415.664 341.48V341.928H434.608V341.224C434.608 339.773 434.373 338.451 433.904 337.256C433.477 336.061 432.859 335.037 432.048 334.184C431.28 333.288 430.32 332.605 429.168 332.136C428.059 331.667 426.821 331.432 425.456 331.432ZM503.55 361C501.033 361 499.177 360.296 497.982 358.888C496.83 357.48 496.254 355.667 496.254 353.448V332.328H485.246V327.976H493.438C494.547 327.976 495.315 327.763 495.742 327.336C496.211 326.867 496.446 326.077 496.446 324.968V316.328H501.374V327.976H516.414V332.328H501.374V356.648H516.414V361H503.55ZM542.373 320.68C540.88 320.68 539.834 320.381 539.237 319.784C538.64 319.144 538.341 318.355 538.341 317.416V316.392C538.341 315.453 538.64 314.685 539.237 314.088C539.834 313.448 540.88 313.128 542.373 313.128C543.866 313.128 544.912 313.448 545.509 314.088C546.106 314.685 546.405 315.453 546.405 316.392V317.416C546.405 318.355 546.106 319.144 545.509 319.784C544.912 320.381 543.866 320.68 542.373 320.68ZM527.909 356.648H539.813V332.328H527.909V327.976H544.933V356.648H556.069V361H527.909V356.648ZM562.956 361V327.976H567.692V331.816H567.948C568.46 330.536 569.185 329.448 570.124 328.552C571.063 327.656 572.449 327.208 574.284 327.208C576.204 327.208 577.633 327.699 578.572 328.68C579.511 329.619 580.087 330.856 580.3 332.392H580.492C581.089 330.899 581.943 329.661 583.052 328.68C584.161 327.699 585.697 327.208 587.66 327.208C590.348 327.208 592.14 328.147 593.036 330.024C593.975 331.901 594.444 334.589 594.444 338.088V361H589.708V338.92C589.708 336.104 589.409 334.163 588.812 333.096C588.257 331.987 587.212 331.432 585.676 331.432C584.311 331.432 583.201 331.88 582.348 332.776C581.495 333.629 581.068 334.952 581.068 336.744V361H576.332V338.92C576.332 336.104 576.033 334.163 575.436 333.096C574.881 331.987 573.857 331.432 572.364 331.432C570.999 331.432 569.868 331.88 568.972 332.776C568.119 333.629 567.692 334.952 567.692 336.744V361H562.956ZM617.651 361.768C615.262 361.768 613.107 361.363 611.187 360.552C609.31 359.741 607.688 358.589 606.323 357.096C605 355.56 603.976 353.747 603.251 351.656C602.526 349.523 602.163 347.155 602.163 344.552C602.163 341.907 602.526 339.517 603.251 337.384C604.019 335.251 605.064 333.437 606.387 331.944C607.71 330.408 609.288 329.235 611.123 328.424C613 327.613 615.07 327.208 617.331 327.208C619.55 327.208 621.555 327.613 623.347 328.424C625.182 329.235 626.739 330.365 628.019 331.816C629.299 333.224 630.28 334.909 630.963 336.872C631.646 338.835 631.987 340.989 631.987 343.336V345.768H607.539V347.304C607.539 348.755 607.774 350.099 608.243 351.336C608.712 352.573 609.374 353.64 610.227 354.536C611.123 355.432 612.19 356.136 613.427 356.648C614.707 357.117 616.115 357.352 617.651 357.352C619.87 357.352 621.79 356.84 623.411 355.816C625.032 354.792 626.27 353.384 627.123 351.592L630.899 354.152C629.918 356.371 628.275 358.205 625.971 359.656C623.71 361.064 620.936 361.768 617.651 361.768ZM617.331 331.432C615.923 331.432 614.622 331.688 613.427 332.2C612.232 332.712 611.187 333.416 610.291 334.312C609.438 335.208 608.755 336.275 608.243 337.512C607.774 338.707 607.539 340.029 607.539 341.48V341.928H626.483V341.224C626.483 339.773 626.248 338.451 625.779 337.256C625.352 336.061 624.734 335.037 623.923 334.184C623.155 333.288 622.195 332.605 621.043 332.136C619.934 331.667 618.696 331.432 617.331 331.432ZM655.834 361.768C652.378 361.768 649.391 361.192 646.874 360.04C644.399 358.845 642.287 357.267 640.538 355.304L643.994 352.296C645.573 353.96 647.301 355.24 649.178 356.136C651.055 357.032 653.317 357.48 655.962 357.48C658.522 357.48 660.613 357.032 662.234 356.136C663.898 355.197 664.73 353.747 664.73 351.784C664.73 350.931 664.559 350.227 664.218 349.672C663.919 349.075 663.493 348.605 662.938 348.264C662.383 347.923 661.765 347.667 661.082 347.496C660.399 347.283 659.674 347.112 658.906 346.984L653.722 346.216C652.57 346.045 651.311 345.811 649.946 345.512C648.623 345.213 647.407 344.744 646.298 344.104C645.189 343.421 644.25 342.525 643.482 341.416C642.757 340.307 642.394 338.856 642.394 337.064C642.394 335.4 642.714 333.971 643.354 332.776C644.037 331.539 644.975 330.515 646.17 329.704C647.365 328.851 648.773 328.232 650.394 327.848C652.015 327.421 653.786 327.208 655.706 327.208C658.693 327.208 661.274 327.677 663.45 328.616C665.669 329.555 667.567 330.856 669.146 332.52L665.818 335.656C665.434 335.187 664.943 334.717 664.346 334.248C663.791 333.736 663.087 333.288 662.234 332.904C661.423 332.477 660.463 332.136 659.354 331.88C658.245 331.624 656.965 331.496 655.514 331.496C652.911 331.496 650.906 331.944 649.498 332.84C648.133 333.736 647.45 335.037 647.45 336.744C647.45 337.597 647.599 338.323 647.898 338.92C648.239 339.475 648.687 339.923 649.242 340.264C649.797 340.605 650.415 340.883 651.098 341.096C651.823 341.267 652.549 341.416 653.274 341.544L658.458 342.312C659.653 342.483 660.911 342.717 662.234 343.016C663.557 343.315 664.773 343.805 665.882 344.488C666.991 345.128 667.909 346.003 668.634 347.112C669.402 348.221 669.786 349.672 669.786 351.464C669.786 354.749 668.506 357.288 665.946 359.08C663.429 360.872 660.058 361.768 655.834 361.768Z" fill="white"/>
<path d="M101.6 401.789V401.209C101.6 399.826 101.799 398.549 102.197 397.377C102.596 396.205 103.164 395.191 103.902 394.336C104.652 393.48 105.549 392.818 106.592 392.35C107.635 391.869 108.795 391.629 110.072 391.629C111.361 391.629 112.527 391.869 113.57 392.35C114.613 392.818 115.51 393.48 116.26 394.336C117.01 395.191 117.584 396.205 117.982 397.377C118.381 398.549 118.58 399.826 118.58 401.209V401.789C118.58 403.172 118.381 404.449 117.982 405.621C117.584 406.781 117.01 407.789 116.26 408.645C115.521 409.5 114.631 410.168 113.588 410.648C112.545 411.117 111.385 411.352 110.107 411.352C108.818 411.352 107.652 411.117 106.609 410.648C105.566 410.168 104.67 409.5 103.92 408.645C103.17 407.789 102.596 406.781 102.197 405.621C101.799 404.449 101.6 403.172 101.6 401.789ZM103.691 401.209V401.789C103.691 402.832 103.832 403.822 104.113 404.76C104.395 405.686 104.805 406.512 105.344 407.238C105.883 407.953 106.551 408.516 107.348 408.926C108.145 409.336 109.064 409.541 110.107 409.541C111.139 409.541 112.047 409.336 112.832 408.926C113.629 408.516 114.297 407.953 114.836 407.238C115.375 406.512 115.779 405.686 116.049 404.76C116.33 403.822 116.471 402.832 116.471 401.789V401.209C116.471 400.178 116.33 399.199 116.049 398.273C115.779 397.348 115.369 396.521 114.818 395.795C114.279 395.068 113.611 394.494 112.814 394.072C112.018 393.65 111.104 393.439 110.072 393.439C109.041 393.439 108.127 393.65 107.33 394.072C106.545 394.494 105.877 395.068 105.326 395.795C104.787 396.521 104.377 397.348 104.096 398.273C103.826 399.199 103.691 400.178 103.691 401.209ZM125.031 395.127V411H122.939V391.98H124.979L125.031 395.127ZM131.764 391.84L131.711 393.773C131.477 393.738 131.248 393.709 131.025 393.686C130.803 393.662 130.562 393.65 130.305 393.65C129.391 393.65 128.588 393.82 127.896 394.16C127.217 394.488 126.643 394.951 126.174 395.549C125.705 396.135 125.348 396.826 125.102 397.623C124.855 398.408 124.715 399.252 124.68 400.154L123.906 400.453C123.906 399.211 124.035 398.057 124.293 396.99C124.551 395.924 124.943 394.992 125.471 394.195C126.01 393.387 126.684 392.76 127.492 392.314C128.312 391.857 129.273 391.629 130.375 391.629C130.645 391.629 130.908 391.652 131.166 391.699C131.436 391.734 131.635 391.781 131.764 391.84ZM147.232 391.98H149.184V410.666C149.184 412.318 148.867 413.736 148.234 414.92C147.613 416.104 146.729 417.012 145.58 417.645C144.443 418.277 143.102 418.594 141.555 418.594C140.77 418.594 139.961 418.471 139.129 418.225C138.309 417.99 137.529 417.627 136.791 417.135C136.064 416.654 135.443 416.057 134.928 415.342L136.105 414.059C136.879 414.996 137.705 415.682 138.584 416.115C139.463 416.561 140.412 416.783 141.432 416.783C142.639 416.783 143.658 416.543 144.49 416.062C145.334 415.582 145.973 414.891 146.406 413.988C146.852 413.086 147.074 412.002 147.074 410.736V396.164L147.232 391.98ZM133.873 401.684V401.314C133.873 399.838 134.037 398.508 134.365 397.324C134.705 396.129 135.191 395.109 135.824 394.266C136.457 393.41 137.225 392.76 138.127 392.314C139.041 391.857 140.072 391.629 141.221 391.629C142.322 391.629 143.301 391.811 144.156 392.174C145.012 392.537 145.75 393.059 146.371 393.738C146.992 394.418 147.49 395.227 147.865 396.164C148.252 397.102 148.533 398.145 148.709 399.293V403.986C148.568 405.064 148.311 406.055 147.936 406.957C147.561 407.848 147.062 408.627 146.441 409.295C145.82 409.951 145.07 410.461 144.191 410.824C143.324 411.176 142.322 411.352 141.186 411.352C140.049 411.352 139.029 411.117 138.127 410.648C137.225 410.18 136.457 409.518 135.824 408.662C135.191 407.795 134.705 406.77 134.365 405.586C134.037 404.402 133.873 403.102 133.873 401.684ZM135.982 401.314V401.684C135.982 402.797 136.094 403.828 136.316 404.777C136.539 405.727 136.879 406.553 137.336 407.256C137.793 407.959 138.373 408.51 139.076 408.908C139.779 409.307 140.605 409.506 141.555 409.506C142.762 409.506 143.775 409.277 144.596 408.82C145.416 408.352 146.066 407.736 146.547 406.975C147.027 406.201 147.379 405.357 147.602 404.443V398.977C147.473 398.355 147.273 397.723 147.004 397.078C146.746 396.434 146.383 395.842 145.914 395.303C145.457 394.752 144.871 394.312 144.156 393.984C143.453 393.645 142.598 393.475 141.59 393.475C140.629 393.475 139.791 393.674 139.076 394.072C138.373 394.471 137.793 395.027 137.336 395.742C136.879 396.445 136.539 397.271 136.316 398.221C136.094 399.17 135.982 400.201 135.982 401.314ZM166.252 407.59V397.781C166.252 396.879 166.064 396.1 165.689 395.443C165.314 394.787 164.764 394.283 164.037 393.932C163.311 393.58 162.414 393.404 161.348 393.404C160.363 393.404 159.484 393.58 158.711 393.932C157.949 394.271 157.346 394.734 156.9 395.32C156.467 395.895 156.25 396.533 156.25 397.236L154.141 397.219C154.141 396.504 154.316 395.812 154.668 395.145C155.02 394.477 155.518 393.879 156.162 393.352C156.807 392.824 157.574 392.408 158.465 392.104C159.367 391.787 160.357 391.629 161.436 391.629C162.795 391.629 163.99 391.857 165.021 392.314C166.064 392.771 166.879 393.457 167.465 394.371C168.051 395.285 168.344 396.434 168.344 397.816V407.01C168.344 407.666 168.391 408.346 168.484 409.049C168.59 409.752 168.736 410.332 168.924 410.789V411H166.691C166.551 410.578 166.439 410.051 166.357 409.418C166.287 408.773 166.252 408.164 166.252 407.59ZM166.744 399.926L166.779 401.543H162.648C161.57 401.543 160.604 401.643 159.748 401.842C158.904 402.029 158.189 402.311 157.604 402.686C157.018 403.049 156.566 403.488 156.25 404.004C155.945 404.52 155.793 405.105 155.793 405.762C155.793 406.441 155.963 407.062 156.303 407.625C156.654 408.188 157.146 408.639 157.779 408.979C158.424 409.307 159.186 409.471 160.064 409.471C161.236 409.471 162.268 409.254 163.158 408.82C164.061 408.387 164.805 407.818 165.391 407.115C165.977 406.412 166.369 405.645 166.568 404.812L167.482 406.025C167.33 406.611 167.049 407.215 166.639 407.836C166.24 408.445 165.719 409.02 165.074 409.559C164.43 410.086 163.668 410.52 162.789 410.859C161.922 411.188 160.938 411.352 159.836 411.352C158.594 411.352 157.51 411.117 156.584 410.648C155.67 410.18 154.955 409.541 154.439 408.732C153.936 407.912 153.684 406.986 153.684 405.955C153.684 405.018 153.883 404.18 154.281 403.441C154.68 402.691 155.254 402.059 156.004 401.543C156.766 401.016 157.68 400.617 158.746 400.348C159.824 400.066 161.031 399.926 162.367 399.926H166.744ZM176.078 396.041V411H173.986V391.98H175.99L176.078 396.041ZM175.604 400.312L174.672 399.785C174.742 398.66 174.971 397.605 175.357 396.621C175.744 395.637 176.266 394.77 176.922 394.02C177.59 393.27 178.369 392.684 179.26 392.262C180.162 391.84 181.158 391.629 182.248 391.629C183.197 391.629 184.047 391.758 184.797 392.016C185.547 392.273 186.186 392.684 186.713 393.246C187.24 393.809 187.639 394.529 187.908 395.408C188.189 396.287 188.33 397.359 188.33 398.625V411H186.221V398.607C186.221 397.295 186.039 396.27 185.676 395.531C185.312 394.781 184.797 394.248 184.129 393.932C183.461 393.615 182.67 393.457 181.756 393.457C180.748 393.457 179.863 393.68 179.102 394.125C178.352 394.559 177.719 395.127 177.203 395.83C176.699 396.521 176.312 397.266 176.043 398.062C175.773 398.848 175.627 399.598 175.604 400.312ZM196.117 391.98V411H194.025V391.98H196.117ZM193.656 386.479C193.656 386.08 193.779 385.746 194.025 385.477C194.283 385.195 194.635 385.055 195.08 385.055C195.525 385.055 195.877 385.195 196.135 385.477C196.404 385.746 196.539 386.08 196.539 386.479C196.539 386.865 196.404 387.199 196.135 387.48C195.877 387.75 195.525 387.885 195.08 387.885C194.635 387.885 194.283 387.75 194.025 387.48C193.779 387.199 193.656 386.865 193.656 386.479ZM215.594 409.189V411H201.408V409.189H215.594ZM214.82 393.545L201.936 411H200.652V409.418L213.502 391.98H214.82V393.545ZM213.889 391.98V393.809H201.004V391.98H213.889ZM230.975 407.59V397.781C230.975 396.879 230.787 396.1 230.412 395.443C230.037 394.787 229.486 394.283 228.76 393.932C228.033 393.58 227.137 393.404 226.07 393.404C225.086 393.404 224.207 393.58 223.434 393.932C222.672 394.271 222.068 394.734 221.623 395.32C221.189 395.895 220.973 396.533 220.973 397.236L218.863 397.219C218.863 396.504 219.039 395.812 219.391 395.145C219.742 394.477 220.24 393.879 220.885 393.352C221.529 392.824 222.297 392.408 223.188 392.104C224.09 391.787 225.08 391.629 226.158 391.629C227.518 391.629 228.713 391.857 229.744 392.314C230.787 392.771 231.602 393.457 232.188 394.371C232.773 395.285 233.066 396.434 233.066 397.816V407.01C233.066 407.666 233.113 408.346 233.207 409.049C233.312 409.752 233.459 410.332 233.646 410.789V411H231.414C231.273 410.578 231.162 410.051 231.08 409.418C231.01 408.773 230.975 408.164 230.975 407.59ZM231.467 399.926L231.502 401.543H227.371C226.293 401.543 225.326 401.643 224.471 401.842C223.627 402.029 222.912 402.311 222.326 402.686C221.74 403.049 221.289 403.488 220.973 404.004C220.668 404.52 220.516 405.105 220.516 405.762C220.516 406.441 220.686 407.062 221.025 407.625C221.377 408.188 221.869 408.639 222.502 408.979C223.146 409.307 223.908 409.471 224.787 409.471C225.959 409.471 226.99 409.254 227.881 408.82C228.783 408.387 229.527 407.818 230.113 407.115C230.699 406.412 231.092 405.645 231.291 404.812L232.205 406.025C232.053 406.611 231.771 407.215 231.361 407.836C230.963 408.445 230.441 409.02 229.797 409.559C229.152 410.086 228.391 410.52 227.512 410.859C226.645 411.188 225.66 411.352 224.559 411.352C223.316 411.352 222.232 411.117 221.307 410.648C220.393 410.18 219.678 409.541 219.162 408.732C218.658 407.912 218.406 406.986 218.406 405.955C218.406 405.018 218.605 404.18 219.004 403.441C219.402 402.691 219.977 402.059 220.727 401.543C221.488 401.016 222.402 400.617 223.469 400.348C224.547 400.066 225.754 399.926 227.09 399.926H231.467ZM251.066 407.309V384H253.176V411H251.207L251.066 407.309ZM237.865 401.684V401.314C237.865 399.838 238.035 398.508 238.375 397.324C238.715 396.129 239.201 395.109 239.834 394.266C240.479 393.41 241.252 392.76 242.154 392.314C243.057 391.857 244.076 391.629 245.213 391.629C246.326 391.629 247.311 391.811 248.166 392.174C249.021 392.537 249.754 393.059 250.363 393.738C250.984 394.418 251.482 395.227 251.857 396.164C252.244 397.102 252.525 398.145 252.701 399.293V403.986C252.561 405.064 252.303 406.055 251.928 406.957C251.553 407.848 251.055 408.627 250.434 409.295C249.812 409.951 249.062 410.461 248.184 410.824C247.316 411.176 246.314 411.352 245.178 411.352C244.053 411.352 243.039 411.117 242.137 410.648C241.234 410.18 240.467 409.518 239.834 408.662C239.201 407.795 238.715 406.77 238.375 405.586C238.035 404.402 237.865 403.102 237.865 401.684ZM239.975 401.314V401.684C239.975 402.797 240.086 403.828 240.309 404.777C240.531 405.727 240.871 406.553 241.328 407.256C241.785 407.959 242.365 408.51 243.068 408.908C243.771 409.307 244.604 409.506 245.564 409.506C246.771 409.506 247.785 409.277 248.605 408.82C249.426 408.352 250.082 407.736 250.574 406.975C251.066 406.201 251.424 405.357 251.646 404.443V398.977C251.506 398.355 251.301 397.723 251.031 397.078C250.762 396.434 250.393 395.842 249.924 395.303C249.467 394.752 248.881 394.312 248.166 393.984C247.463 393.645 246.607 393.475 245.6 393.475C244.627 393.475 243.789 393.674 243.086 394.072C242.383 394.471 241.797 395.027 241.328 395.742C240.871 396.445 240.531 397.271 240.309 398.221C240.086 399.17 239.975 400.201 239.975 401.314ZM257.553 401.789V401.209C257.553 399.826 257.752 398.549 258.15 397.377C258.549 396.205 259.117 395.191 259.855 394.336C260.605 393.48 261.502 392.818 262.545 392.35C263.588 391.869 264.748 391.629 266.025 391.629C267.314 391.629 268.48 391.869 269.523 392.35C270.566 392.818 271.463 393.48 272.213 394.336C272.963 395.191 273.537 396.205 273.936 397.377C274.334 398.549 274.533 399.826 274.533 401.209V401.789C274.533 403.172 274.334 404.449 273.936 405.621C273.537 406.781 272.963 407.789 272.213 408.645C271.475 409.5 270.584 410.168 269.541 410.648C268.498 411.117 267.338 411.352 266.061 411.352C264.771 411.352 263.605 411.117 262.562 410.648C261.52 410.168 260.623 409.5 259.873 408.645C259.123 407.789 258.549 406.781 258.15 405.621C257.752 404.449 257.553 403.172 257.553 401.789ZM259.645 401.209V401.789C259.645 402.832 259.785 403.822 260.066 404.76C260.348 405.686 260.758 406.512 261.297 407.238C261.836 407.953 262.504 408.516 263.301 408.926C264.098 409.336 265.018 409.541 266.061 409.541C267.092 409.541 268 409.336 268.785 408.926C269.582 408.516 270.25 407.953 270.789 407.238C271.328 406.512 271.732 405.686 272.002 404.76C272.283 403.822 272.424 402.832 272.424 401.789V401.209C272.424 400.178 272.283 399.199 272.002 398.273C271.732 397.348 271.322 396.521 270.771 395.795C270.232 395.068 269.564 394.494 268.768 394.072C267.971 393.65 267.057 393.439 266.025 393.439C264.994 393.439 264.08 393.65 263.283 394.072C262.498 394.494 261.83 395.068 261.279 395.795C260.74 396.521 260.33 397.348 260.049 398.273C259.779 399.199 259.645 400.178 259.645 401.209ZM290.283 406.148C290.283 405.633 290.154 405.123 289.896 404.619C289.639 404.115 289.141 403.652 288.402 403.23C287.676 402.809 286.604 402.451 285.186 402.158C284.131 401.924 283.188 401.66 282.355 401.367C281.535 401.074 280.844 400.723 280.281 400.312C279.719 399.902 279.291 399.41 278.998 398.836C278.705 398.262 278.559 397.582 278.559 396.797C278.559 396.094 278.711 395.432 279.016 394.811C279.332 394.178 279.777 393.627 280.352 393.158C280.938 392.678 281.641 392.303 282.461 392.033C283.293 391.764 284.225 391.629 285.256 391.629C286.721 391.629 287.975 391.881 289.018 392.385C290.072 392.877 290.875 393.551 291.426 394.406C291.988 395.262 292.27 396.229 292.27 397.307H290.178C290.178 396.65 289.984 396.029 289.598 395.443C289.223 394.857 288.666 394.377 287.928 394.002C287.201 393.627 286.311 393.439 285.256 393.439C284.166 393.439 283.281 393.604 282.602 393.932C281.922 394.26 281.424 394.676 281.107 395.18C280.803 395.684 280.65 396.205 280.65 396.744C280.65 397.166 280.715 397.553 280.844 397.904C280.984 398.244 281.23 398.561 281.582 398.854C281.945 399.146 282.461 399.422 283.129 399.68C283.797 399.938 284.664 400.189 285.73 400.436C287.266 400.775 288.52 401.191 289.492 401.684C290.477 402.164 291.203 402.762 291.672 403.477C292.141 404.18 292.375 405.035 292.375 406.043C292.375 406.828 292.211 407.549 291.883 408.205C291.555 408.85 291.08 409.406 290.459 409.875C289.85 410.344 289.111 410.707 288.244 410.965C287.389 411.223 286.428 411.352 285.361 411.352C283.756 411.352 282.396 411.088 281.283 410.561C280.182 410.021 279.344 409.318 278.77 408.451C278.207 407.572 277.926 406.641 277.926 405.656H280.018C280.088 406.641 280.398 407.42 280.949 407.994C281.5 408.557 282.174 408.955 282.971 409.189C283.779 409.424 284.576 409.541 285.361 409.541C286.439 409.541 287.342 409.383 288.068 409.066C288.795 408.75 289.346 408.334 289.721 407.818C290.096 407.303 290.283 406.746 290.283 406.148ZM313.275 411.352C312.033 411.352 310.891 411.123 309.848 410.666C308.816 410.209 307.914 409.564 307.141 408.732C306.379 407.9 305.787 406.916 305.365 405.779C304.955 404.631 304.75 403.377 304.75 402.018V401.262C304.75 399.797 304.967 398.473 305.4 397.289C305.834 396.105 306.432 395.092 307.193 394.248C307.955 393.404 308.822 392.76 309.795 392.314C310.779 391.857 311.811 391.629 312.889 391.629C314.096 391.629 315.168 391.846 316.105 392.279C317.043 392.701 317.828 393.305 318.461 394.09C319.105 394.863 319.592 395.783 319.92 396.85C320.248 397.904 320.412 399.07 320.412 400.348V401.631H306.016V399.838H318.32V399.592C318.297 398.525 318.08 397.529 317.67 396.604C317.271 395.666 316.674 394.904 315.877 394.318C315.08 393.732 314.084 393.439 312.889 393.439C311.998 393.439 311.178 393.627 310.428 394.002C309.689 394.377 309.051 394.916 308.512 395.619C307.984 396.311 307.574 397.137 307.281 398.098C307 399.047 306.859 400.102 306.859 401.262V402.018C306.859 403.072 307.012 404.057 307.316 404.971C307.633 405.873 308.078 406.67 308.652 407.361C309.238 408.053 309.93 408.592 310.727 408.979C311.523 409.365 312.402 409.559 313.363 409.559C314.488 409.559 315.484 409.354 316.352 408.943C317.219 408.521 317.998 407.859 318.689 406.957L320.008 407.977C319.598 408.586 319.082 409.148 318.461 409.664C317.852 410.18 317.119 410.59 316.264 410.895C315.408 411.199 314.412 411.352 313.275 411.352ZM326.547 395.918V411H324.438V391.98H326.459L326.547 395.918ZM326.16 400.312L325.141 399.785C325.211 398.66 325.422 397.605 325.773 396.621C326.137 395.637 326.641 394.77 327.285 394.02C327.93 393.27 328.703 392.684 329.605 392.262C330.508 391.84 331.533 391.629 332.682 391.629C333.607 391.629 334.445 391.758 335.195 392.016C335.957 392.262 336.602 392.654 337.129 393.193C337.668 393.721 338.084 394.412 338.377 395.268C338.67 396.123 338.816 397.148 338.816 398.344V411H336.725V398.414C336.725 397.148 336.525 396.158 336.127 395.443C335.74 394.729 335.195 394.219 334.492 393.914C333.801 393.609 332.998 393.457 332.084 393.457C331.006 393.457 330.092 393.68 329.342 394.125C328.604 394.559 328 395.127 327.531 395.83C327.074 396.521 326.734 397.266 326.512 398.062C326.289 398.848 326.172 399.598 326.16 400.312ZM338.799 398.66L337.393 398.695C337.451 397.77 337.662 396.885 338.025 396.041C338.4 395.197 338.91 394.447 339.555 393.791C340.199 393.123 340.967 392.596 341.857 392.209C342.76 391.822 343.773 391.629 344.898 391.629C345.883 391.629 346.762 391.764 347.535 392.033C348.309 392.291 348.959 392.707 349.486 393.281C350.025 393.844 350.436 394.564 350.717 395.443C350.998 396.322 351.139 397.377 351.139 398.607V411H349.029V398.59C349.029 397.242 348.83 396.199 348.432 395.461C348.045 394.711 347.506 394.189 346.814 393.896C346.123 393.604 345.314 393.457 344.389 393.457C343.475 393.469 342.672 393.639 341.98 393.967C341.289 394.283 340.709 394.705 340.24 395.232C339.783 395.748 339.432 396.305 339.186 396.902C338.951 397.5 338.822 398.086 338.799 398.66ZM377.453 406.605V391.98H379.562V411H377.541L377.453 406.605ZM377.84 403.09L378.93 403.055C378.93 404.25 378.789 405.352 378.508 406.359C378.227 407.367 377.787 408.246 377.189 408.996C376.592 409.746 375.818 410.326 374.869 410.736C373.92 411.146 372.777 411.352 371.441 411.352C370.516 411.352 369.666 411.223 368.893 410.965C368.131 410.695 367.475 410.273 366.924 409.699C366.373 409.125 365.945 408.381 365.641 407.467C365.348 406.553 365.201 405.445 365.201 404.145V391.98H367.293V404.18C367.293 405.199 367.404 406.049 367.627 406.729C367.861 407.408 368.178 407.953 368.576 408.363C368.986 408.773 369.455 409.066 369.982 409.242C370.51 409.418 371.078 409.506 371.688 409.506C373.234 409.506 374.453 409.207 375.344 408.609C376.246 408.012 376.885 407.227 377.26 406.254C377.646 405.27 377.84 404.215 377.84 403.09ZM387.051 395.918V411H384.941V391.98H386.963L387.051 395.918ZM386.664 400.312L385.645 399.785C385.715 398.66 385.926 397.605 386.277 396.621C386.641 395.637 387.145 394.77 387.789 394.02C388.434 393.27 389.207 392.684 390.109 392.262C391.012 391.84 392.037 391.629 393.186 391.629C394.111 391.629 394.949 391.758 395.699 392.016C396.461 392.262 397.105 392.654 397.633 393.193C398.172 393.721 398.588 394.412 398.881 395.268C399.174 396.123 399.32 397.148 399.32 398.344V411H397.229V398.414C397.229 397.148 397.029 396.158 396.631 395.443C396.244 394.729 395.699 394.219 394.996 393.914C394.305 393.609 393.502 393.457 392.588 393.457C391.51 393.457 390.596 393.68 389.846 394.125C389.107 394.559 388.504 395.127 388.035 395.83C387.578 396.521 387.238 397.266 387.016 398.062C386.793 398.848 386.676 399.598 386.664 400.312ZM399.303 398.66L397.896 398.695C397.955 397.77 398.166 396.885 398.529 396.041C398.904 395.197 399.414 394.447 400.059 393.791C400.703 393.123 401.471 392.596 402.361 392.209C403.264 391.822 404.277 391.629 405.402 391.629C406.387 391.629 407.266 391.764 408.039 392.033C408.812 392.291 409.463 392.707 409.99 393.281C410.529 393.844 410.939 394.564 411.221 395.443C411.502 396.322 411.643 397.377 411.643 398.607V411H409.533V398.59C409.533 397.242 409.334 396.199 408.936 395.461C408.549 394.711 408.01 394.189 407.318 393.896C406.627 393.604 405.818 393.457 404.893 393.457C403.979 393.469 403.176 393.639 402.484 393.967C401.793 394.283 401.213 394.705 400.744 395.232C400.287 395.748 399.936 396.305 399.689 396.902C399.455 397.5 399.326 398.086 399.303 398.66ZM437.166 406.148C437.166 405.633 437.037 405.123 436.779 404.619C436.521 404.115 436.023 403.652 435.285 403.23C434.559 402.809 433.486 402.451 432.068 402.158C431.014 401.924 430.07 401.66 429.238 401.367C428.418 401.074 427.727 400.723 427.164 400.312C426.602 399.902 426.174 399.41 425.881 398.836C425.588 398.262 425.441 397.582 425.441 396.797C425.441 396.094 425.594 395.432 425.898 394.811C426.215 394.178 426.66 393.627 427.234 393.158C427.82 392.678 428.523 392.303 429.344 392.033C430.176 391.764 431.107 391.629 432.139 391.629C433.604 391.629 434.857 391.881 435.9 392.385C436.955 392.877 437.758 393.551 438.309 394.406C438.871 395.262 439.152 396.229 439.152 397.307H437.061C437.061 396.65 436.867 396.029 436.48 395.443C436.105 394.857 435.549 394.377 434.811 394.002C434.084 393.627 433.193 393.439 432.139 393.439C431.049 393.439 430.164 393.604 429.484 393.932C428.805 394.26 428.307 394.676 427.99 395.18C427.686 395.684 427.533 396.205 427.533 396.744C427.533 397.166 427.598 397.553 427.727 397.904C427.867 398.244 428.113 398.561 428.465 398.854C428.828 399.146 429.344 399.422 430.012 399.68C430.68 399.938 431.547 400.189 432.613 400.436C434.148 400.775 435.402 401.191 436.375 401.684C437.359 402.164 438.086 402.762 438.555 403.477C439.023 404.18 439.258 405.035 439.258 406.043C439.258 406.828 439.094 407.549 438.766 408.205C438.438 408.85 437.963 409.406 437.342 409.875C436.732 410.344 435.994 410.707 435.127 410.965C434.271 411.223 433.311 411.352 432.244 411.352C430.639 411.352 429.279 411.088 428.166 410.561C427.064 410.021 426.227 409.318 425.652 408.451C425.09 407.572 424.809 406.641 424.809 405.656H426.9C426.971 406.641 427.281 407.42 427.832 407.994C428.383 408.557 429.057 408.955 429.854 409.189C430.662 409.424 431.459 409.541 432.244 409.541C433.322 409.541 434.225 409.383 434.951 409.066C435.678 408.75 436.229 408.334 436.604 407.818C436.979 407.303 437.166 406.746 437.166 406.148ZM442.861 401.789V401.209C442.861 399.826 443.061 398.549 443.459 397.377C443.857 396.205 444.426 395.191 445.164 394.336C445.914 393.48 446.811 392.818 447.854 392.35C448.896 391.869 450.057 391.629 451.334 391.629C452.623 391.629 453.789 391.869 454.832 392.35C455.875 392.818 456.771 393.48 457.521 394.336C458.271 395.191 458.846 396.205 459.244 397.377C459.643 398.549 459.842 399.826 459.842 401.209V401.789C459.842 403.172 459.643 404.449 459.244 405.621C458.846 406.781 458.271 407.789 457.521 408.645C456.783 409.5 455.893 410.168 454.85 410.648C453.807 411.117 452.646 411.352 451.369 411.352C450.08 411.352 448.914 411.117 447.871 410.648C446.828 410.168 445.932 409.5 445.182 408.645C444.432 407.789 443.857 406.781 443.459 405.621C443.061 404.449 442.861 403.172 442.861 401.789ZM444.953 401.209V401.789C444.953 402.832 445.094 403.822 445.375 404.76C445.656 405.686 446.066 406.512 446.605 407.238C447.145 407.953 447.812 408.516 448.609 408.926C449.406 409.336 450.326 409.541 451.369 409.541C452.4 409.541 453.309 409.336 454.094 408.926C454.891 408.516 455.559 407.953 456.098 407.238C456.637 406.512 457.041 405.686 457.311 404.76C457.592 403.822 457.732 402.832 457.732 401.789V401.209C457.732 400.178 457.592 399.199 457.311 398.273C457.041 397.348 456.631 396.521 456.08 395.795C455.541 395.068 454.873 394.494 454.076 394.072C453.279 393.65 452.365 393.439 451.334 393.439C450.303 393.439 449.389 393.65 448.592 394.072C447.807 394.494 447.139 395.068 446.588 395.795C446.049 396.521 445.639 397.348 445.357 398.273C445.088 399.199 444.953 400.178 444.953 401.209ZM450.068 388.957L453.426 384.035H455.957L451.896 388.957H450.068ZM475.328 384V411H473.236V384H475.328ZM493.258 406.605V391.98H495.367V411H493.346L493.258 406.605ZM493.645 403.09L494.734 403.055C494.734 404.25 494.594 405.352 494.312 406.359C494.031 407.367 493.592 408.246 492.994 408.996C492.396 409.746 491.623 410.326 490.674 410.736C489.725 411.146 488.582 411.352 487.246 411.352C486.32 411.352 485.471 411.223 484.697 410.965C483.936 410.695 483.279 410.273 482.729 409.699C482.178 409.125 481.75 408.381 481.445 407.467C481.152 406.553 481.006 405.445 481.006 404.145V391.98H483.098V404.18C483.098 405.199 483.209 406.049 483.432 406.729C483.666 407.408 483.982 407.953 484.381 408.363C484.791 408.773 485.26 409.066 485.787 409.242C486.314 409.418 486.883 409.506 487.492 409.506C489.039 409.506 490.258 409.207 491.148 408.609C492.051 408.012 492.689 407.227 493.064 406.254C493.451 405.27 493.645 404.215 493.645 403.09ZM513.385 391.98H515.336V410.666C515.336 412.318 515.02 413.736 514.387 414.92C513.766 416.104 512.881 417.012 511.732 417.645C510.596 418.277 509.254 418.594 507.707 418.594C506.922 418.594 506.113 418.471 505.281 418.225C504.461 417.99 503.682 417.627 502.943 417.135C502.217 416.654 501.596 416.057 501.08 415.342L502.258 414.059C503.031 414.996 503.857 415.682 504.736 416.115C505.615 416.561 506.564 416.783 507.584 416.783C508.791 416.783 509.811 416.543 510.643 416.062C511.486 415.582 512.125 414.891 512.559 413.988C513.004 413.086 513.227 412.002 513.227 410.736V396.164L513.385 391.98ZM500.025 401.684V401.314C500.025 399.838 500.189 398.508 500.518 397.324C500.857 396.129 501.344 395.109 501.977 394.266C502.609 393.41 503.377 392.76 504.279 392.314C505.193 391.857 506.225 391.629 507.373 391.629C508.475 391.629 509.453 391.811 510.309 392.174C511.164 392.537 511.902 393.059 512.523 393.738C513.145 394.418 513.643 395.227 514.018 396.164C514.404 397.102 514.686 398.145 514.861 399.293V403.986C514.721 405.064 514.463 406.055 514.088 406.957C513.713 407.848 513.215 408.627 512.594 409.295C511.973 409.951 511.223 410.461 510.344 410.824C509.477 411.176 508.475 411.352 507.338 411.352C506.201 411.352 505.182 411.117 504.279 410.648C503.377 410.18 502.609 409.518 501.977 408.662C501.344 407.795 500.857 406.77 500.518 405.586C500.189 404.402 500.025 403.102 500.025 401.684ZM502.135 401.314V401.684C502.135 402.797 502.246 403.828 502.469 404.777C502.691 405.727 503.031 406.553 503.488 407.256C503.945 407.959 504.525 408.51 505.229 408.908C505.932 409.307 506.758 409.506 507.707 409.506C508.914 409.506 509.928 409.277 510.748 408.82C511.568 408.352 512.219 407.736 512.699 406.975C513.18 406.201 513.531 405.357 513.754 404.443V398.977C513.625 398.355 513.426 397.723 513.156 397.078C512.898 396.434 512.535 395.842 512.066 395.303C511.609 394.752 511.023 394.312 510.309 393.984C509.605 393.645 508.75 393.475 507.742 393.475C506.781 393.475 505.943 393.674 505.229 394.072C504.525 394.471 503.945 395.027 503.488 395.742C503.031 396.445 502.691 397.271 502.469 398.221C502.246 399.17 502.135 400.201 502.135 401.314ZM532.404 407.59V397.781C532.404 396.879 532.217 396.1 531.842 395.443C531.467 394.787 530.916 394.283 530.189 393.932C529.463 393.58 528.566 393.404 527.5 393.404C526.516 393.404 525.637 393.58 524.863 393.932C524.102 394.271 523.498 394.734 523.053 395.32C522.619 395.895 522.402 396.533 522.402 397.236L520.293 397.219C520.293 396.504 520.469 395.812 520.82 395.145C521.172 394.477 521.67 393.879 522.314 393.352C522.959 392.824 523.727 392.408 524.617 392.104C525.52 391.787 526.51 391.629 527.588 391.629C528.947 391.629 530.143 391.857 531.174 392.314C532.217 392.771 533.031 393.457 533.617 394.371C534.203 395.285 534.496 396.434 534.496 397.816V407.01C534.496 407.666 534.543 408.346 534.637 409.049C534.742 409.752 534.889 410.332 535.076 410.789V411H532.844C532.703 410.578 532.592 410.051 532.51 409.418C532.439 408.773 532.404 408.164 532.404 407.59ZM532.896 399.926L532.932 401.543H528.801C527.723 401.543 526.756 401.643 525.9 401.842C525.057 402.029 524.342 402.311 523.756 402.686C523.17 403.049 522.719 403.488 522.402 404.004C522.098 404.52 521.945 405.105 521.945 405.762C521.945 406.441 522.115 407.062 522.455 407.625C522.807 408.188 523.299 408.639 523.932 408.979C524.576 409.307 525.338 409.471 526.217 409.471C527.389 409.471 528.42 409.254 529.311 408.82C530.213 408.387 530.957 407.818 531.543 407.115C532.129 406.412 532.521 405.645 532.721 404.812L533.635 406.025C533.482 406.611 533.201 407.215 532.791 407.836C532.393 408.445 531.871 409.02 531.227 409.559C530.582 410.086 529.82 410.52 528.941 410.859C528.074 411.188 527.09 411.352 525.988 411.352C524.746 411.352 523.662 411.117 522.736 410.648C521.822 410.18 521.107 409.541 520.592 408.732C520.088 407.912 519.836 406.986 519.836 405.955C519.836 405.018 520.035 404.18 520.434 403.441C520.832 402.691 521.406 402.059 522.156 401.543C522.918 401.016 523.832 400.617 524.898 400.348C525.977 400.066 527.184 399.926 528.52 399.926H532.896ZM542.23 395.127V411H540.139V391.98H542.178L542.23 395.127ZM548.963 391.84L548.91 393.773C548.676 393.738 548.447 393.709 548.225 393.686C548.002 393.662 547.762 393.65 547.504 393.65C546.59 393.65 545.787 393.82 545.096 394.16C544.416 394.488 543.842 394.951 543.373 395.549C542.904 396.135 542.547 396.826 542.301 397.623C542.055 398.408 541.914 399.252 541.879 400.154L541.105 400.453C541.105 399.211 541.234 398.057 541.492 396.99C541.75 395.924 542.143 394.992 542.67 394.195C543.209 393.387 543.883 392.76 544.691 392.314C545.512 391.857 546.473 391.629 547.574 391.629C547.844 391.629 548.107 391.652 548.365 391.699C548.635 391.734 548.834 391.781 548.963 391.84ZM554.623 385.406L554.5 403.863H552.566L552.443 385.406H554.623ZM552.215 409.752C552.215 409.354 552.338 409.02 552.584 408.75C552.842 408.469 553.199 408.328 553.656 408.328C554.102 408.328 554.453 408.469 554.711 408.75C554.98 409.02 555.115 409.354 555.115 409.752C555.115 410.139 554.98 410.473 554.711 410.754C554.453 411.023 554.102 411.158 553.656 411.158C553.199 411.158 552.842 411.023 552.584 410.754C552.338 410.473 552.215 410.139 552.215 409.752Z" fill="white"/>
<line x1="99" y1="377" x2="379" y2="377" stroke="white" stroke-width="2"/>
<line x1="1393" y1="438" x2="1393" y2="118" stroke="white" stroke-width="2"/>
<path d="M177.521 156.288C175.295 156.288 173.272 155.781 171.452 154.767C169.66 153.753 168.244 152.319 167.203 150.466C166.192 148.583 165.686 146.41 165.686 143.948C165.686 141.515 166.206 139.372 167.247 137.518C168.316 135.635 169.761 134.201 171.582 133.217C173.403 132.203 175.44 131.696 177.694 131.696C179.948 131.696 181.986 132.203 183.807 133.217C185.627 134.201 187.058 135.621 188.098 137.474C189.168 139.328 189.702 141.486 189.702 143.948C189.702 146.41 189.153 148.583 188.055 150.466C186.986 152.319 185.526 153.753 183.677 154.767C181.827 155.781 179.775 156.288 177.521 156.288ZM177.521 152.812C178.937 152.812 180.266 152.479 181.509 151.812C182.752 151.146 183.749 150.147 184.5 148.814C185.281 147.482 185.671 145.86 185.671 143.948C185.671 142.037 185.295 140.414 184.544 139.082C183.792 137.75 182.81 136.765 181.596 136.128C180.382 135.461 179.067 135.128 177.651 135.128C176.206 135.128 174.876 135.461 173.663 136.128C172.478 136.765 171.524 137.75 170.801 139.082C170.079 140.414 169.718 142.037 169.718 143.948C169.718 145.889 170.064 147.526 170.758 148.858C171.481 150.19 172.434 151.19 173.619 151.856C174.804 152.493 176.105 152.812 177.521 152.812ZM202.302 135.954C202.996 134.592 203.978 133.535 205.25 132.782C206.551 132.029 208.126 131.652 209.975 131.652V135.737H208.935C204.513 135.737 202.302 138.141 202.302 142.949V155.897H198.357V132.087H202.302V135.954ZM227.794 131.696C229.846 131.696 231.638 132.145 233.17 133.043C234.731 133.941 235.887 135.07 236.638 136.432V132.087H240.626V156.418C240.626 158.59 240.164 160.517 239.239 162.197C238.314 163.906 236.985 165.238 235.251 166.194C233.546 167.15 231.552 167.628 229.268 167.628C226.147 167.628 223.546 166.889 221.465 165.412C219.384 163.934 218.156 161.921 217.78 159.372H221.682C222.116 160.821 223.011 161.979 224.37 162.848C225.728 163.746 227.361 164.195 229.268 164.195C231.436 164.195 233.199 163.514 234.557 162.153C235.944 160.792 236.638 158.88 236.638 156.418V151.421C235.858 152.812 234.702 153.97 233.17 154.897C231.638 155.824 229.846 156.288 227.794 156.288C225.685 156.288 223.763 155.766 222.029 154.723C220.324 153.681 218.98 152.218 217.997 150.335C217.015 148.452 216.523 146.309 216.523 143.905C216.523 141.472 217.015 139.343 217.997 137.518C218.98 135.664 220.324 134.23 222.029 133.217C223.763 132.203 225.685 131.696 227.794 131.696ZM236.638 143.948C236.638 142.152 236.277 140.588 235.554 139.256C234.832 137.923 233.849 136.91 232.606 136.214C231.393 135.49 230.049 135.128 228.575 135.128C227.101 135.128 225.757 135.476 224.543 136.171C223.329 136.866 222.361 137.88 221.639 139.212C220.916 140.545 220.555 142.109 220.555 143.905C220.555 145.73 220.916 147.323 221.639 148.684C222.361 150.017 223.329 151.045 224.543 151.769C225.757 152.464 227.101 152.812 228.575 152.812C230.049 152.812 231.393 152.464 232.606 151.769C233.849 151.045 234.832 150.017 235.554 148.684C236.277 147.323 236.638 145.744 236.638 143.948ZM249.287 143.905C249.287 141.472 249.778 139.343 250.761 137.518C251.743 135.664 253.087 134.23 254.792 133.217C256.526 132.203 258.448 131.696 260.558 131.696C262.639 131.696 264.445 132.145 265.977 133.043C267.509 133.941 268.65 135.07 269.402 136.432V132.087H273.39V155.897H269.402V151.465C268.621 152.855 267.451 154.014 265.89 154.941C264.358 155.839 262.567 156.288 260.515 156.288C258.405 156.288 256.498 155.766 254.792 154.723C253.087 153.681 251.743 152.218 250.761 150.335C249.778 148.452 249.287 146.309 249.287 143.905ZM269.402 143.948C269.402 142.152 269.04 140.588 268.318 139.256C267.595 137.923 266.613 136.91 265.37 136.214C264.156 135.49 262.812 135.128 261.338 135.128C259.864 135.128 258.521 135.476 257.307 136.171C256.093 136.866 255.125 137.88 254.402 139.212C253.68 140.545 253.318 142.109 253.318 143.905C253.318 145.73 253.68 147.323 254.402 148.684C255.125 150.017 256.093 151.045 257.307 151.769C258.521 152.464 259.864 152.812 261.338 152.812C262.812 152.812 264.156 152.464 265.37 151.769C266.613 151.045 267.595 150.017 268.318 148.684C269.04 147.323 269.402 145.744 269.402 143.948ZM295.099 131.652C297.989 131.652 300.33 132.536 302.122 134.303C303.914 136.041 304.81 138.561 304.81 141.863V155.897H300.908V142.428C300.908 140.052 300.316 138.242 299.131 136.997C297.946 135.722 296.327 135.085 294.275 135.085C292.194 135.085 290.533 135.737 289.29 137.04C288.076 138.343 287.469 140.241 287.469 142.732V155.897H283.524V132.087H287.469V135.476C288.25 134.259 289.304 133.318 290.634 132.652C291.992 131.986 293.481 131.652 295.099 131.652ZM316.76 128.22C316.009 128.22 315.373 127.959 314.853 127.438C314.332 126.917 314.072 126.279 314.072 125.526C314.072 124.773 314.332 124.136 314.853 123.614C315.373 123.093 316.009 122.832 316.76 122.832C317.482 122.832 318.089 123.093 318.581 123.614C319.101 124.136 319.361 124.773 319.361 125.526C319.361 126.279 319.101 126.917 318.581 127.438C318.089 127.959 317.482 128.22 316.76 128.22ZM318.667 132.087V155.897H314.722V132.087H318.667Z" fill="white"/>
<path d="M160.553 104.014C157.216 104.014 154.497 106.808 154.497 110.254C154.497 112.418 155.578 114.329 157.209 115.45L145.763 146.543C145.444 146.487 145.124 146.445 144.798 146.445C143.343 146.445 142.032 146.999 140.992 147.874L129.532 138.119C129.988 137.243 130.266 136.263 130.266 135.206C130.266 131.767 127.547 128.966 124.21 128.966C120.873 128.966 118.154 131.767 118.154 135.206C118.154 137.061 118.963 138.721 120.221 139.862L108.007 161.768C107.388 161.551 106.742 161.404 106.056 161.404C102.719 161.404 100 164.205 100 167.644C100 171.089 102.719 173.883 106.056 173.883C109.393 173.883 112.112 171.082 112.112 167.644C112.112 165.809 111.324 164.177 110.1 163.035L122.321 141.102C122.919 141.305 123.544 141.445 124.21 141.445C125.651 141.445 126.949 140.906 127.989 140.038L139.456 149.8C139.014 150.668 138.742 151.635 138.742 152.671C138.742 156.109 141.461 158.911 144.798 158.911C148.135 158.911 150.854 156.109 150.854 152.671C150.854 150.458 149.719 148.518 148.033 147.412L159.465 116.367C159.819 116.437 160.186 116.479 160.56 116.479C163.897 116.479 166.616 113.678 166.616 110.24C166.616 106.794 163.897 104 160.56 104L160.553 104.014ZM106.056 171.39C104.051 171.39 102.42 169.709 102.42 167.644C102.42 165.585 104.051 163.904 106.056 163.904C108.061 163.904 109.685 165.585 109.685 167.644C109.685 169.709 108.061 171.39 106.056 171.39ZM124.203 138.952C122.198 138.952 120.574 137.271 120.574 135.213C120.574 133.147 122.205 131.473 124.203 131.473C126.209 131.473 127.833 133.154 127.833 135.213C127.84 137.271 126.209 138.952 124.203 138.952ZM144.798 156.418C142.793 156.418 141.168 154.737 141.168 152.678C141.168 150.612 142.8 148.938 144.798 148.938C146.803 148.938 148.427 150.619 148.427 152.678C148.427 154.744 146.796 156.418 144.798 156.418ZM160.553 114C158.548 114 156.923 112.32 156.923 110.254C156.923 108.195 158.555 106.514 160.553 106.514C162.558 106.514 164.182 108.195 164.182 110.254C164.182 112.32 162.551 114 160.553 114Z" fill="white"/>
</svg>
